<?xml version="1.0" encoding="utf-8"?>
<!-- Generator: Adobe Illustrator 19.0.0, SVG Export Plug-In . SVG Version: 6.00 Build 0)  -->
<svg version="1.1" id="Capa_1" xmlns="http://www.w3.org/2000/svg" xmlns:xlink="http://www.w3.org/1999/xlink" x="0px" y="0px"
	 viewBox="0 0 100 100" style="enable-background:new 0 0 100 100;" xml:space="preserve">
<style type="text/css">
	.st0{fill:#E9C61D;}
	.st1{fill:#ECE118;}
	.st2{fill:#EF8128;}
	.st3{fill:#F29F26;}
</style>
<g id="XMLID_993_">
	<path id="XMLID_1039_" class="st0" d="M71.5,70.9c8.4-8.5,10.8-21.8,6.1-32.8C72,25.4,58.1,18,44.5,20.5
		C30.7,23.1,20.3,35.4,20,49.4c-0.2,11.1,5.9,21.6,15.6,27c10.4,5.7,23.7,4.5,33-2.8C69.6,72.7,70.6,71.9,71.5,70.9z M71.5,70.9"/>
	<path id="XMLID_1036_" class="st1" d="M67.9,26c-4.8-3.6-10.6-5.7-16.6-5.9c-1.5-0.1-3.1,0-4.6,0.1c-0.8,0.1-1.6,0.1-2.2,0.5
		c-0.6,0.4-1.2,1.1-1.7,1.7c-1.9,2-3.5,4.2-4.8,6.6c-5.1,9.3-5.3,20.9-0.6,30.4c4.3,8.7,12.4,15.1,21.8,17.4
		c0.9,0.2,2.4,0.7,3.3,0.5c1.2-0.3,2.4-1.2,3.4-1.9c2.1-1.3,4.1-3,5.8-4.8c3.1-3.3,5.5-7.3,6.8-11.7C82.4,46.9,78,33.5,67.9,26z
		 M67.9,26"/>
	<path id="XMLID_1033_" class="st2" d="M72.6,49.2c-0.3-9.4-6.7-17.8-15.5-20.7c-7.7-2.5-16.3-0.7-22.3,4.8
		c-7.8,7.1-9.6,18.9-4.4,28c4.7,8.1,14.2,12.6,23.5,11C64.8,70.4,73,60.4,72.6,49.2z M72.6,49.2"/>
	<path id="XMLID_1030_" class="st3" d="M72.6,49c-0.4-8.6-5.8-16.5-13.8-19.9C52,26.3,43.9,27,37.7,31c-0.3,0.2-0.7,0.4-0.9,0.6
		C36.4,32,36.2,33,36,33.4c-0.5,1.3-0.9,2.6-1.2,3.9C34.2,40,34,42.8,34,45.5c0.1,4.6,1.1,9.1,3.1,13.3c1.9,4,4.6,7.6,7.9,10.6
		c0.8,0.7,1.6,1.4,2.5,2c0.4,0.3,0.9,0.6,1.3,0.9c0.5,0.3,0.9,0.4,1.5,0.4c2.2,0,4.4-0.4,6.6-1.1C66.5,68.5,73,59.1,72.6,49z
		 M72.6,49"/>
	<path id="XMLID_1027_" class="st1" d="M50,14.5c-0.9,0-1.6-0.7-1.6-1.6V3.6C48.4,2.7,49.1,2,50,2c0.9,0,1.6,0.7,1.6,1.6v9.3
		C51.6,13.8,50.9,14.5,50,14.5L50,14.5z M50,14.5"/>
	<path id="XMLID_1024_" class="st1" d="M50,98c-0.9,0-1.6-0.7-1.6-1.6v-9.3c0-0.9,0.7-1.6,1.6-1.6c0.9,0,1.6,0.7,1.6,1.6v9.3
		C51.6,97.3,50.9,98,50,98L50,98z M50,98"/>
	<path id="XMLID_1021_" class="st1" d="M31.5,19.5c-0.6,0-1.1-0.3-1.4-0.8l-4.7-8.1C25,9.9,25.2,8.9,26,8.4C26.8,8,27.8,8.3,28.2,9
		l4.7,8.1c0.4,0.8,0.2,1.8-0.6,2.2C32,19.4,31.7,19.5,31.5,19.5L31.5,19.5z M31.5,19.5"/>
	<path id="XMLID_1018_" class="st1" d="M73.2,91.8c-0.6,0-1.1-0.3-1.4-0.8l-4.7-8.1c-0.4-0.8-0.2-1.8,0.6-2.2
		c0.8-0.4,1.8-0.2,2.2,0.6l4.7,8.1c0.4,0.8,0.2,1.8-0.6,2.2C73.7,91.7,73.5,91.8,73.2,91.8L73.2,91.8z M73.2,91.8"/>
	<path id="XMLID_1015_" class="st1" d="M17.9,33.1c-0.3,0-0.6-0.1-0.8-0.2L9,28.2c-0.8-0.4-1-1.4-0.6-2.2c0.4-0.8,1.4-1,2.2-0.6
		l8.1,4.7c0.8,0.4,1,1.4,0.6,2.2C19,32.8,18.4,33.1,17.9,33.1L17.9,33.1z M17.9,33.1"/>
	<path id="XMLID_1012_" class="st1" d="M90.2,74.8c-0.3,0-0.6-0.1-0.8-0.2l-8.1-4.7c-0.8-0.4-1-1.4-0.6-2.2c0.4-0.8,1.4-1,2.2-0.6
		l8.1,4.7c0.8,0.4,1,1.4,0.6,2.2C91.3,74.5,90.7,74.8,90.2,74.8L90.2,74.8z M90.2,74.8"/>
	<path id="XMLID_1009_" class="st1" d="M12.9,51.6H3.6C2.7,51.6,2,50.9,2,50c0-0.9,0.7-1.6,1.6-1.6h9.3c0.9,0,1.6,0.7,1.6,1.6
		C14.5,50.9,13.8,51.6,12.9,51.6L12.9,51.6z M12.9,51.6"/>
	<path id="XMLID_1006_" class="st1" d="M96.4,51.6h-9.3c-0.9,0-1.6-0.7-1.6-1.6c0-0.9,0.7-1.6,1.6-1.6h9.3c0.9,0,1.6,0.7,1.6,1.6
		C98,50.9,97.3,51.6,96.4,51.6L96.4,51.6z M96.4,51.6"/>
	<path id="XMLID_1003_" class="st1" d="M9.8,74.8c-0.6,0-1.1-0.3-1.4-0.8C8,73.2,8.2,72.2,9,71.8l8.1-4.7c0.8-0.4,1.8-0.2,2.2,0.6
		c0.4,0.8,0.2,1.8-0.6,2.2l-8.1,4.7C10.4,74.7,10.1,74.8,9.8,74.8L9.8,74.8z M9.8,74.8"/>
	<path id="XMLID_1000_" class="st1" d="M82.1,33.1c-0.6,0-1.1-0.3-1.4-0.8c-0.4-0.8-0.2-1.8,0.6-2.2l8.1-4.7
		c0.8-0.4,1.8-0.2,2.2,0.6c0.4,0.8,0.2,1.8-0.6,2.2l-8.1,4.7C82.7,33,82.4,33.1,82.1,33.1L82.1,33.1z M82.1,33.1"/>
	<path id="XMLID_997_" class="st1" d="M26.8,91.8c-0.3,0-0.6-0.1-0.8-0.2c-0.8-0.4-1-1.4-0.6-2.2l4.7-8.1c0.4-0.8,1.4-1,2.2-0.6
		c0.8,0.4,1,1.4,0.6,2.2L28.2,91C27.9,91.5,27.4,91.8,26.8,91.8L26.8,91.8z M26.8,91.8"/>
	<path id="XMLID_994_" class="st1" d="M68.5,19.5c-0.3,0-0.6-0.1-0.8-0.2c-0.8-0.4-1-1.4-0.6-2.2L71.8,9c0.4-0.8,1.4-1,2.2-0.6
		c0.8,0.4,1,1.4,0.6,2.2l-4.7,8.1C69.6,19.2,69.1,19.5,68.5,19.5L68.5,19.5z M68.5,19.5"/>
</g>
</svg>
